<svg width="170" height="25" viewBox="0 0 170 25" fill="none" xmlns="http://www.w3.org/2000/svg">
<path d="M27.2138 3.32001C27.216 1.64607 25.8451 0.287071 24.1512 0.284928C23.3367 0.2835 22.5555 0.602719 21.9795 1.17117L15.4755 7.5984C14.2816 8.7853 14.2816 10.7028 15.4755 11.8896C16.6766 13.0694 18.6162 13.0694 19.8173 11.8896L21.0776 10.6442V21.2484C21.0827 22.9216 22.4543 24.2763 24.1475 24.2813C25.8408 24.2763 27.2124 22.9216 27.2175 21.2484L27.2138 3.32001Z" fill="#2563EB"/>
<path fill-rule="evenodd" clip-rule="evenodd" d="M7.13028e-06 3.32359C-0.00360624 1.64965 1.36658 0.289219 3.06053 0.284934C3.87715 0.282792 4.66125 0.603439 5.23867 1.17475L11.7427 7.60198C12.9373 8.78887 12.9373 10.7063 11.7427 11.8932C10.5416 13.073 8.60126 13.073 7.40018 11.8932L6.14056 10.6485V21.252C6.1355 22.9252 4.76387 24.2799 3.07065 24.2849C1.37742 24.2806 0.00506584 22.9252 7.13028e-06 21.252V3.32359Z" fill="#2563EB"/>
<path d="M153.838 24.0198C153.587 24.0198 153.381 23.9398 153.221 23.7796C153.061 23.6195 152.98 23.4136 152.98 23.162V0.85786C152.98 0.606223 153.061 0.400338 153.221 0.240207C153.381 0.0800741 153.587 7.62939e-06 153.838 7.62939e-06H157.647C157.899 7.62939e-06 158.105 0.0800741 158.265 0.240207C158.425 0.400338 158.505 0.606223 158.505 0.85786V19.4218H169.142C169.394 19.4218 169.6 19.5018 169.76 19.662C169.92 19.8221 170 20.028 170 20.2796V23.162C170 23.4136 169.92 23.6195 169.76 23.7796C169.6 23.9398 169.394 24.0198 169.142 24.0198H153.838Z" fill="#F0F3F4"/>
<path d="M126.929 24.0198C126.723 24.0198 126.552 23.9512 126.414 23.814C126.277 23.6538 126.208 23.4823 126.208 23.2993C126.208 23.1849 126.22 23.0819 126.243 22.9904L134.41 0.926479C134.478 0.674844 134.615 0.457521 134.821 0.274513C135.027 0.091504 135.313 0 135.679 0H140.071C140.437 0 140.723 0.091504 140.929 0.274513C141.135 0.457521 141.272 0.674844 141.341 0.926479L149.508 22.9904C149.531 23.0819 149.542 23.1849 149.542 23.2993C149.542 23.4823 149.473 23.6538 149.336 23.814C149.199 23.9512 149.027 24.0198 148.821 24.0198H145.253C144.91 24.0198 144.658 23.9398 144.498 23.7796C144.338 23.6195 144.235 23.4708 144.189 23.3336L142.714 19.4904H133.037L131.561 23.3336C131.516 23.4708 131.413 23.6195 131.253 23.7796C131.093 23.9398 130.841 24.0198 130.498 24.0198H126.929ZM134.307 15.0639H141.41L137.875 5.18142L134.307 15.0639Z" fill="#F0F3F4"/>
<path d="M115.041 24.0198C114.789 24.0198 114.583 23.9398 114.423 23.7796C114.263 23.6195 114.183 23.4136 114.183 23.162V4.76966H107.938C107.709 4.76966 107.515 4.68959 107.354 4.52946C107.194 4.36933 107.114 4.17488 107.114 3.94612V0.857855C107.114 0.606217 107.194 0.400333 107.354 0.240201C107.515 0.0800684 107.709 1.90735e-06 107.938 1.90735e-06H125.918C126.17 1.90735e-06 126.376 0.0800684 126.536 0.240201C126.696 0.400333 126.776 0.606217 126.776 0.857855V3.94612C126.776 4.17488 126.696 4.36933 126.536 4.52946C126.376 4.68959 126.17 4.76966 125.918 4.76966H119.708V23.162C119.708 23.4136 119.627 23.6195 119.467 23.7796C119.307 23.9398 119.101 24.0198 118.85 24.0198H115.041Z" fill="#F0F3F4"/>
<path d="M98.0566 24.0198C97.8049 24.0198 97.5991 23.9398 97.4389 23.7796C97.2788 23.6195 97.1987 23.4136 97.1987 23.162V0.857857C97.1987 0.606219 97.2788 0.400335 97.4389 0.240203C97.5991 0.0800703 97.8049 3.8147e-06 98.0566 3.8147e-06H101.934C102.186 3.8147e-06 102.392 0.0800703 102.552 0.240203C102.712 0.400335 102.792 0.606219 102.792 0.857857V23.162C102.792 23.4136 102.712 23.6195 102.552 23.7796C102.392 23.9398 102.186 24.0198 101.934 24.0198H98.0566Z" fill="#F0F3F4"/>
<path d="M81.6695 24.0198C79.5789 24.0198 77.7886 23.6751 76.2984 22.9857C74.8306 22.274 73.6852 21.2509 72.8623 19.9165C72.0616 18.5598 71.6279 16.9251 71.5612 15.0124C71.5389 14.0561 71.5278 13.033 71.5278 11.9432C71.5278 10.8534 71.5389 9.81923 71.5612 8.84064C71.6279 6.97243 72.0616 5.38223 72.8623 4.07003C73.6852 2.75784 74.8417 1.75701 76.3318 1.06755C77.8442 0.355852 79.6234 1.90735e-06 81.6695 1.90735e-06C83.3153 1.90735e-06 84.761 0.211288 86.0065 0.633859C87.2519 1.05643 88.2972 1.61245 89.1424 2.3019C89.9875 2.96912 90.6325 3.70306 91.0773 4.50372C91.5221 5.30438 91.7557 6.07168 91.7779 6.80562C91.7779 7.00579 91.7112 7.18372 91.5777 7.3394C91.4443 7.47284 91.2664 7.53956 91.044 7.53956H86.9072C86.6848 7.53956 86.5069 7.49508 86.3734 7.40612C86.2622 7.31716 86.1621 7.18372 86.0732 7.00579C85.9175 6.60546 85.6617 6.20513 85.3059 5.8048C84.9723 5.38223 84.5163 5.02638 83.9381 4.73725C83.3598 4.44812 82.6036 4.30356 81.6695 4.30356C80.2684 4.30356 79.1564 4.67053 78.3335 5.40447C77.5328 6.13841 77.0991 7.3394 77.0324 9.00744C76.9657 10.9201 76.9657 12.8662 77.0324 14.8456C77.0991 16.5804 77.5439 17.8258 78.3668 18.582C79.212 19.3382 80.3351 19.7163 81.7363 19.7163C82.6481 19.7163 83.4599 19.5606 84.1716 19.2492C84.9055 18.9156 85.4838 18.4041 85.9064 17.7146C86.3289 17.0252 86.5402 16.1467 86.5402 15.0791V14.2451H82.9039C82.6815 14.2451 82.4924 14.1673 82.3368 14.0116C82.1811 13.8337 82.1032 13.6335 82.1032 13.4111V11.276C82.1032 11.0313 82.1811 10.8312 82.3368 10.6755C82.4924 10.5198 82.6815 10.442 82.9039 10.442H91.0773C91.322 10.442 91.5221 10.5198 91.6778 10.6755C91.8335 10.8312 91.9113 11.0313 91.9113 11.276V14.9123C91.9113 16.825 91.4888 18.4597 90.6436 19.8164C89.8207 21.173 88.6309 22.2184 87.074 22.9523C85.5394 23.664 83.7379 24.0198 81.6695 24.0198Z" fill="#F0F3F4"/>
<path d="M61.5073 24.0198C61.2556 24.0198 61.0497 23.9398 60.8896 23.7796C60.7295 23.6195 60.6494 23.4136 60.6494 23.162V0.857857C60.6494 0.606219 60.7295 0.400335 60.8896 0.240203C61.0497 0.0800703 61.2556 3.8147e-06 61.5073 3.8147e-06H65.3848C65.6364 3.8147e-06 65.8423 0.0800703 66.0024 0.240203C66.1625 0.400335 66.2426 0.606219 66.2426 0.857857V23.162C66.2426 23.4136 66.1625 23.6195 66.0024 23.7796C65.8423 23.9398 65.6364 24.0198 65.3848 24.0198H61.5073Z" fill="#F0F3F4"/>
<path d="M36.6323 24.0198C36.3806 24.0198 36.1747 23.9398 36.0146 23.7796C35.8545 23.6195 35.7744 23.4136 35.7744 23.162V0.857857C35.7744 0.606219 35.8545 0.400335 36.0146 0.240203C36.1747 0.0800703 36.3806 3.8147e-06 36.6323 3.8147e-06H45.2451C47.5327 3.8147e-06 49.4428 0.36602 50.9755 1.09805C52.5082 1.80721 53.6749 2.85951 54.4756 4.25495C55.2991 5.62751 55.7338 7.33177 55.7795 9.36774C55.8024 10.3743 55.8138 11.255 55.8138 12.0099C55.8138 12.7648 55.8024 13.6341 55.7795 14.6178C55.7109 16.7453 55.2877 18.5067 54.5099 19.9022C53.7321 21.2976 52.5883 22.3385 51.0785 23.0247C49.5687 23.6881 47.6814 24.0198 45.4167 24.0198H36.6323ZM41.2304 19.5933H45.2451C46.3889 19.5933 47.3268 19.4218 48.0588 19.0786C48.7909 18.7355 49.3285 18.1979 49.6716 17.4659C50.0376 16.711 50.2321 15.7387 50.2549 14.5492C50.2778 13.8858 50.2893 13.291 50.2893 12.7648C50.3121 12.2387 50.3121 11.7125 50.2893 11.1864C50.2893 10.6602 50.2778 10.0769 50.2549 9.43637C50.2092 7.72067 49.7631 6.46249 48.9167 5.66182C48.0932 4.83829 46.8121 4.42652 45.0735 4.42652H41.2304V19.5933Z" fill="#F0F3F4"/>
</svg>
